<?xml version="1.0" encoding="UTF-8"?>
<svg version="1.1" xmlns="http://www.w3.org/2000/svg" width="500" height="500">
<path d="M0 0 C11.88 0 23.76 0 36 0 C37 3 37 3 35.9675293 5.81347656 C34.80727015 9.63474893 35.24644766 11.24314132 36.51953125 14.984375 C36.9057666 16.12455078 37.29200195 17.26472656 37.68994141 18.43945312 C39.89447596 24.43105432 42.24632126 30.35150697 44.6875 36.25 C45.24878849 37.61815619 45.80964786 38.9864885 46.37011719 40.35498047 C48.23745832 44.90717126 50.11792913 49.45388316 52 54 C52.34556946 54.83527222 52.69113892 55.67054443 53.04718018 56.53112793 C56.69787955 65.35477478 60.35511346 74.17569532 64.01861572 82.99403381 C68.7204341 94.31258431 73.38241291 105.64678731 78 117 C82.26695626 108.90479099 85.7536748 100.53337074 89.1875 92.0625 C90.41537139 89.04711343 91.64647224 86.03305565 92.87890625 83.01953125 C93.20296448 82.22662689 93.52702271 81.43372253 93.86090088 80.61679077 C96.45353692 74.29114399 99.10723596 67.99249934 101.77734375 61.69921875 C102.59032518 59.77794495 103.40323226 57.85663968 104.21606445 55.93530273 C105.40749155 53.11967995 106.60136048 50.30524863 107.80404663 47.49441528 C116.66916138 28.44633386 116.66916138 28.44633386 119 8 C117.74458443 5.48916886 116.49936512 5.12874554 114 4 C114.33 2.68 114.66 1.36 115 0 C123.25 0 131.5 0 140 0 C140.33 1.32 140.66 2.64 141 4 C140.49210938 4.3403125 139.98421875 4.680625 139.4609375 5.03125 C118.13369348 20.04818587 109.90040576 54.5814776 100.41723633 77.83862305 C97.41177667 85.20081713 94.35515414 92.53356234 91.1796875 99.82421875 C90.26721471 101.93555379 89.3557706 104.04733049 88.44448853 106.15917969 C87.86234379 107.49794538 87.27421822 108.83412824 86.67977905 110.16748047 C85.85624904 112.01523834 85.05459587 113.8726994 84.25390625 115.73046875 C83.79314697 116.77614014 83.3323877 117.82181152 82.85766602 118.89916992 C81.44657732 124.00086009 82.53733353 128.52984437 84.62890625 133.296875 C84.94150391 134.02777344 85.25410156 134.75867188 85.57617188 135.51171875 C85.90166016 136.25035156 86.22714844 136.98898437 86.5625 137.75 C87.21444083 139.24270209 87.86178537 140.73742238 88.50390625 142.234375 C88.79080322 142.88631836 89.0777002 143.53826172 89.37329102 144.20996094 C90 146 90 146 90 149 C82.41 149.33 74.82 149.66 67 150 C64.06340455 144.1268091 61.33601549 138.64789774 58.93359375 132.6171875 C58.66227631 131.94096344 58.39095886 131.26473938 58.11141968 130.56802368 C57.52457666 129.10517669 56.93943674 127.6416455 56.35586548 126.17749023 C54.7298964 122.10092377 53.08794586 118.03081234 51.4453125 113.9609375 C51.0938063 113.08979309 50.74230011 112.21864868 50.38014221 111.32110596 C45.1013524 98.26950669 39.65247018 85.28790272 34.21923828 72.30004883 C33.37525149 70.28209476 32.53133759 68.26411021 31.6875 66.24609375 C31.27950165 65.27052017 30.8715033 64.29494659 30.45114136 63.28981018 C28.06285547 57.57085486 25.70183475 51.84187406 23.375 46.09765625 C17.20354689 30.84527779 17.20354689 30.84527779 10.125 16 C9.79153564 15.3407251 9.45807129 14.6814502 9.11450195 14.00219727 C7.37548216 10.78754069 5.60106053 8.52322782 2.7421875 6.3125 C1.83726563 5.549375 0.93234375 4.78625 0 4 C0 2.68 0 1.36 0 0 Z " fill="#262626" transform="translate(7,171)"/>
<path d="M0 0 C0.804375 -0.00128906 1.60875 -0.00257813 2.4375 -0.00390625 C3.283125 -0.00003906 4.12875 0.00382813 5 0.0078125 C6.2684375 0.00201172 6.2684375 0.00201172 7.5625 -0.00390625 C8.366875 -0.00261719 9.17125 -0.00132812 10 0 C10.7425 0.00112793 11.485 0.00225586 12.25 0.00341797 C14 0.1328125 14 0.1328125 15 1.1328125 C15.16017166 3.94257768 15.25950534 6.73054846 15.31640625 9.54296875 C15.33718735 10.38500351 15.35796844 11.22703827 15.37937927 12.09458923 C15.44496812 14.79474429 15.50380276 17.49499967 15.5625 20.1953125 C15.60567637 22.02149491 15.64929036 23.84766704 15.69335938 25.67382812 C15.80065894 30.16005242 15.90189966 34.646378 16 39.1328125 C16.39324463 37.97668457 16.78648926 36.82055664 17.19165039 35.62939453 C17.72251107 34.09136503 18.25369698 32.55344776 18.78515625 31.015625 C19.04252563 30.25612549 19.29989502 29.49662598 19.56506348 28.71411133 C23.33052931 17.87634697 29.58996803 7.8061406 39.5625 1.6953125 C45.93140891 -1.17255876 53.76183904 -0.95563975 60.43359375 0.7578125 C66.74823028 3.51508069 71.37037745 8.69579039 74.2890625 14.8515625 C77.94189173 24.41724479 78.15085368 33.33441384 78.2109375 43.4765625 C78.23181965 45.43711467 78.25271926 47.39766684 78.27463722 49.3582077 C78.32754678 54.16598419 78.37204592 58.97375864 78.40136719 63.78173828 C78.41830783 66.48830352 78.44303399 69.19458631 78.47622681 71.90100098 C78.50707863 74.44181912 78.52658817 76.98280711 78.53329468 79.52380371 C78.62355758 85.83375649 78.94366492 90.56734219 82 96.1328125 C82.33 96.7928125 82.66 97.4528125 83 98.1328125 C82.67 98.7928125 82.34 99.4528125 82 100.1328125 C74.41 100.1328125 66.82 100.1328125 59 100.1328125 C59 96.1328125 59 96.1328125 59.9375 93.8203125 C62.49919832 87.34072262 62.16006763 80.34059656 62.16796875 73.4765625 C62.17129715 72.45663208 62.17462555 71.43670166 62.17805481 70.38586426 C62.18310279 68.23088021 62.18546379 66.07588839 62.18530273 63.92089844 C62.18747442 60.67108774 62.2056122 57.4216251 62.22460938 54.171875 C63.21163828 29.82462235 63.21163828 29.82462235 53.5625 8.5703125 C49.56188201 6.32606338 47.24262828 5.94524597 42.6875 6.6328125 C34.05634882 10.14378925 28.904106 16.86986087 25 25.1328125 C20.76776038 35.53306042 18.58233582 46.05646175 17 57.1328125 C16.86722656 58.06222656 16.73445313 58.99164063 16.59765625 59.94921875 C15.89838958 66.07019685 15.87199336 72.22830775 15.8125 78.3828125 C15.79936768 79.23528564 15.78623535 80.08775879 15.77270508 80.96606445 C15.76423354 87.6253438 16.69391473 93.2290888 20 99.1328125 C19 100.1328125 19 100.1328125 16.77514648 100.24633789 C15.33764038 100.23848267 15.33764038 100.23848267 13.87109375 100.23046875 C12.31938477 100.22563477 12.31938477 100.22563477 10.73632812 100.22070312 C9.64771484 100.21232422 8.55910156 100.20394531 7.4375 100.1953125 C5.7987793 100.18854492 5.7987793 100.18854492 4.12695312 100.18164062 C1.41791505 100.16981076 -1.29101599 100.15332793 -4 100.1328125 C-4 96.1328125 -4 96.1328125 -2 93.1328125 C-0.85385423 88.99623854 -0.86710109 84.97477748 -0.85473633 80.69970703 C-0.85137772 79.96894958 -0.8480191 79.23819214 -0.84455872 78.48529053 C-0.83508961 76.07871788 -0.83310766 73.6722151 -0.83203125 71.265625 C-0.82881592 69.58560152 -0.82545164 67.90557832 -0.82194519 66.22555542 C-0.81596407 62.70684154 -0.81410425 59.18815219 -0.81469727 55.66943359 C-0.81479884 51.17161721 -0.8011467 46.67395884 -0.78392506 42.17617989 C-0.77277978 38.70681035 -0.77077883 35.23747871 -0.77130699 31.76809311 C-0.77013069 30.11038544 -0.76572861 28.45267668 -0.75797462 26.79498672 C-0.74812331 24.4714491 -0.75107284 22.14825069 -0.75708008 19.82470703 C-0.75565506 18.5052005 -0.75423004 17.18569397 -0.75276184 15.82620239 C-1.10767284 10.52433198 -2.40010558 5.7754811 -5 1.1328125 C-3.4779041 -0.3892834 -2.11789918 0.00321729 0 0 Z " fill="#272726" transform="translate(215,207.8671875)"/>
<path d="M0 0 C7.97544209 7.21151086 10.43251396 17.83140255 11.32891846 28.1947937 C11.45986546 31.66242808 11.50608153 35.11978809 11.515625 38.58984375 C11.53120453 39.84459 11.54678406 41.09933624 11.56283569 42.3921051 C11.60195533 45.68583703 11.62950193 48.97936492 11.65032959 52.27325439 C11.68218281 56.93076167 11.73369641 61.58806923 11.78671265 66.24537659 C11.81375485 68.71499505 11.83518483 71.18468312 11.85025024 73.65440369 C11.86051239 74.77319412 11.87077454 75.89198456 11.88134766 77.04467773 C11.88784332 78.02250717 11.89433899 79.00033661 11.90103149 80.00779724 C12.04746544 83.01639492 12.48913332 85.88446948 13.0390625 88.84375 C14.5240625 89.33875 14.5240625 89.33875 16.0390625 89.84375 C15.5440625 91.32875 15.5440625 91.32875 15.0390625 92.84375 C8.7690625 92.84375 2.4990625 92.84375 -3.9609375 92.84375 C-3.9906665 89.90927979 -3.9906665 89.90927979 -4.02099609 86.91552734 C-4.08920954 80.39757351 -4.16601399 73.87976341 -4.24846458 67.36197472 C-4.29806961 63.41648129 -4.34439753 59.47101013 -4.3828125 55.52539062 C-4.42012413 51.70620809 -4.46659683 47.88723004 -4.51900101 44.06822586 C-4.53730481 42.62288687 -4.55249769 41.17750448 -4.56428146 39.73209763 C-4.40867202 18.37763884 -4.40867202 18.37763884 -13.5859375 -0.15625 C-19.07294057 -4.77688416 -26.14879628 -3.63262351 -32.9609375 -3.15625 C-39.47401293 -1.75030654 -43.82384238 0.99382587 -48.09765625 6.0625 C-49.17645948 7.85501413 -49.17645948 7.85501413 -48.60546875 10.0625 C-48.39277344 10.6503125 -48.18007812 11.238125 -47.9609375 11.84375 C-46.8265625 12.06289062 -45.6921875 12.28203125 -44.5234375 12.5078125 C-33.8142814 14.70568898 -26.46903928 16.9109636 -19.6484375 25.90625 C-13.07436128 36.58240648 -12.51260339 49.97517495 -15.0859375 61.96875 C-18.35564495 73.63324122 -25.95026408 84.34618953 -36.5234375 90.40625 C-44.62576988 94.10313169 -54.03112766 94.44913201 -62.5234375 91.65625 C-70.2632844 87.57523982 -74.80801486 82.3570223 -77.578125 73.9765625 C-79.72486272 62.01616666 -77.3046118 51.77369355 -70.8984375 41.65625 C-61.43650704 28.91202246 -47.86957131 24.64309518 -32.9609375 21.84375 C-33.6209375 21.18375 -34.2809375 20.52375 -34.9609375 19.84375 C-34.4659375 19.34875 -34.4659375 19.34875 -33.9609375 18.84375 C-37.02013138 17.82401871 -39.08511775 17.72841398 -42.28515625 17.74609375 C-43.31318359 17.74931641 -44.34121094 17.75253906 -45.40039062 17.75585938 C-47.00817383 17.76842773 -47.00817383 17.76842773 -48.6484375 17.78125 C-49.73189453 17.78576172 -50.81535156 17.79027344 -51.93164062 17.79492188 C-54.60812835 17.80671257 -57.28450527 17.82316937 -59.9609375 17.84375 C-59.00821216 9.9323935 -56.19494124 5.30753817 -50.08984375 0.296875 C-35.26347405 -9.82314248 -14.75516581 -10.6362326 0 0 Z M-56.9609375 37.84375 C-63.15173059 47.61222522 -64.7190634 57.35547337 -62.34765625 68.8046875 C-59.97744595 75.59163328 -55.42069836 80.61386957 -48.9609375 83.84375 C-40.56222471 84.70624407 -34.71402741 83.58469968 -28.08984375 78.37109375 C-20.38869413 71.36553184 -16.72925042 62.1062154 -15.9609375 51.84375 C-15.86966867 42.39742647 -17.18614422 32.01894477 -23.9609375 24.84375 C-35.83715101 22.07626538 -49.46414063 28.92864021 -56.9609375 37.84375 Z " fill="#151512" transform="translate(188.9609375,215.15625)"/>
<path d="M0 0 C8.44463948 6.94337024 12.87883606 14.45468557 14.18881226 25.47958374 C14.34856131 28.79790502 14.39230578 32.09587023 14.38671875 35.41796875 C14.40088333 36.62262283 14.41504791 37.82727692 14.42964172 39.06843567 C14.47119454 42.87904998 14.48671182 46.68919218 14.5 50.5 C14.52919232 54.32129934 14.56385978 58.14248419 14.60249329 61.96369934 C14.62473118 64.32992851 14.64070024 66.69622788 14.64933777 69.06254578 C14.4521643 81.25426448 14.4521643 81.25426448 18.8125 92.3125 C18.3175 93.7975 18.3175 93.7975 17.8125 95.3125 C14.83327407 95.33933987 11.85428705 95.35926037 8.875 95.375 C8.02486328 95.38337891 7.17472656 95.39175781 6.29882812 95.40039062 C5.48994141 95.40361328 4.68105469 95.40683594 3.84765625 95.41015625 C3.0987915 95.41539307 2.34992676 95.42062988 1.57836914 95.42602539 C-0.1875 95.3125 -0.1875 95.3125 -1.1875 94.3125 C-1.29587179 92.07052409 -1.33381717 89.82513107 -1.34521484 87.58056641 C-1.35029556 86.87632538 -1.35537628 86.17208435 -1.36061096 85.44650269 C-1.371341 83.9105111 -1.37995077 82.37450363 -1.38673019 80.83848953 C-1.39851049 78.39894716 -1.417967 75.95958254 -1.43984985 73.52011108 C-1.50145198 66.58133984 -1.55527112 59.64258086 -1.58886719 52.70361328 C-1.60995855 48.46180361 -1.64538991 44.22030827 -1.68962479 39.97867966 C-1.70368728 38.36897899 -1.71248493 36.75922258 -1.71567917 35.14946365 C-1.7047291 18.16164427 -1.7047291 18.16164427 -9.1875 3.3125 C-13.82775688 -1.24384627 -17.55736527 -1.34533796 -23.86962891 -1.29589844 C-30.74041935 -1.02338475 -36.66472458 1.146531 -42.1875 5.3125 C-43.4510136 7.17285335 -43.4510136 7.17285335 -44.1875 9.3125 C-44.55875 10.22 -44.93 11.1275 -45.3125 12.0625 C-45.745625 13.17625 -45.745625 13.17625 -46.1875 14.3125 C-44.9809375 14.54324219 -43.774375 14.77398437 -42.53125 15.01171875 C-23.13505224 18.88893365 -23.13505224 18.88893365 -16.875 27.5625 C-10.72607407 37.75501309 -8.91402196 49.56480561 -10.6875 61.375 C-13.68402514 73.4214333 -20.51277274 84.7683131 -30.875 91.6875 C-38.62764831 95.9932197 -47.16927117 97.39630559 -55.80859375 95.19140625 C-64.04450624 92.14858144 -69.09667309 86.98280046 -73.1875 79.3125 C-75.97725979 70.94322063 -75.29608718 59.41255708 -71.4375 51.5078125 C-71.025 50.78335938 -70.6125 50.05890625 -70.1875 49.3125 C-69.775 48.54679687 -69.3625 47.78109375 -68.9375 46.9921875 C-63.14806664 37.28830772 -53.80560534 30.84738823 -43.1875 27.3125 C-39.24735165 26.32595751 -35.27784714 25.58919006 -31.27734375 24.890625 C-28.28977885 24.47825947 -28.28977885 24.47825947 -26.1875 23.3125 C-32.86715594 20.28279891 -38.41013498 19.93876822 -45.6875 20.125 C-47.20730469 20.14530273 -47.20730469 20.14530273 -48.7578125 20.16601562 C-51.23494404 20.20106937 -53.71092927 20.25020236 -56.1875 20.3125 C-55.60158578 11.83026492 -52.62024027 7.92424489 -46.1875 2.3125 C-32.47803125 -6.73574938 -14.51643267 -7.68517024 0 0 Z M-54 40.49609375 C-59.44901974 48.47314428 -61.17072675 58.18434193 -59.5625 67.6875 C-57.56501619 75.38666228 -54.74804251 80.70616164 -48.1875 85.3125 C-42.32820928 87.26559691 -35.61390672 87.34937216 -29.9375 84.75 C-21.19882146 79.60329362 -16.40160333 72.09613109 -13.64331055 62.39941406 C-11.19717164 51.19984504 -12.64279666 38.83925797 -18.55078125 29.0546875 C-20.04089232 27.15955268 -20.04089232 27.15955268 -22.2109375 26.78125 C-34.71348117 26.94739676 -45.89099145 30.72683561 -54 40.49609375 Z " fill="#242424" transform="translate(469.1875,212.6875)"/>
<path d="M0 0 C0.00423194 0.7056843 0.00846388 1.4113686 0.01282406 2.13843727 C0.11616114 19.31500379 0.22480348 36.49152856 0.33933926 53.66802406 C0.39460031 61.97446938 0.44807052 70.280919 0.49731445 78.58740234 C0.54024359 85.82793473 0.5865434 93.06843639 0.63687855 100.30892122 C0.66340927 104.14213163 0.68826035 107.97533623 0.70907402 111.80858231 C0.72872786 115.41840988 0.75289717 119.02817937 0.78049088 122.63795471 C0.79425259 124.59055614 0.80326133 126.54318926 0.81211853 128.49581909 C0.82680176 130.24992096 0.82680176 130.24992096 0.84178162 132.03945923 C0.84823417 133.05158792 0.85468672 134.06371662 0.8613348 135.10651588 C1.00652908 138.13624025 1.44421441 141.02045698 2 144 C2.99 144.33 3.98 144.66 5 145 C4.67 145.99 4.34 146.98 4 148 C-3.59 148 -11.18 148 -19 148 C-19.33 146.68 -19.66 145.36 -20 144 C-19.34 144 -18.68 144 -18 144 C-17.20496556 140.4979214 -16.87449979 137.26843728 -16.87301636 133.68016052 C-16.87019653 132.62729858 -16.86737671 131.57443665 -16.86447144 130.4896698 C-16.86649567 129.34508804 -16.8685199 128.20050629 -16.87060547 127.02124023 C-16.86797699 125.20098831 -16.86797699 125.20098831 -16.86529541 123.34396362 C-16.86165248 120.0238271 -16.86250049 116.70375303 -16.8656745 113.38362002 C-16.8682101 109.90614155 -16.86585726 106.42866571 -16.86428833 102.95118713 C-16.86247039 97.11304242 -16.86486337 91.27491037 -16.86962891 85.43676758 C-16.87507336 78.68901825 -16.87330604 71.94129913 -16.8678025 65.19355053 C-16.86326374 59.39640496 -16.86262449 53.59926847 -16.86524117 47.8021217 C-16.8667994 44.34127085 -16.86701005 40.88043421 -16.86370468 37.41958427 C-16.86027827 33.56283266 -16.86502819 29.70611485 -16.87060547 25.84936523 C-16.86756912 24.12945625 -16.86756912 24.12945625 -16.86447144 22.37480164 C-16.86870117 20.79973846 -16.86870117 20.79973846 -16.87301636 19.19285583 C-16.8735819 17.82543826 -16.8735819 17.82543826 -16.87415886 16.43039608 C-16.99240072 14.1467665 -17.3574165 12.18795791 -18 10 C-18.66 10 -19.32 10 -20 10 C-20 8.68 -20 7.36 -20 6 C-17.23113877 4.99422987 -14.46015896 3.99519853 -11.6875 3 C-10.90181641 2.71382812 -10.11613281 2.42765625 -9.30664062 2.1328125 C-8.54931641 1.86210937 -7.79199219 1.59140625 -7.01171875 1.3125 C-6.31522217 1.06113281 -5.61872559 0.80976563 -4.90112305 0.55078125 C-3 0 -3 0 0 0 Z " fill="#272727" transform="translate(354,160)"/>
<path d="M0 0 C0.00331015 0.69445504 0.00662029 1.38891008 0.01003075 2.10440922 C0.09130678 19.01431679 0.1834143 35.92412731 0.28752708 52.83390903 C0.33761529 61.01140542 0.38405862 69.18889197 0.421875 77.36645508 C0.45485109 84.49532374 0.49471326 91.62411523 0.54279006 98.75289863 C0.56799928 102.5263436 0.58979691 106.29973774 0.60334396 110.07324409 C0.6162151 113.62813651 0.63832343 117.18285413 0.66738319 120.73764992 C0.68071421 122.65783945 0.68437069 124.5780886 0.68769836 126.49832153 C0.76088287 134.06326206 1.23953366 140.28488153 5 147 C4 148 4 148 1.77514648 148.11352539 C0.81680908 148.10828857 -0.14152832 148.10305176 -1.12890625 148.09765625 C-2.68061523 148.09282227 -2.68061523 148.09282227 -4.26367188 148.08789062 C-5.35228516 148.07951172 -6.44089844 148.07113281 -7.5625 148.0625 C-9.2012207 148.05573242 -9.2012207 148.05573242 -10.87304688 148.04882812 C-13.58208495 148.03699826 -16.29101599 148.02051543 -19 148 C-19 144 -19 144 -17 141 C-16.11160201 137.58943723 -15.87302817 134.39156728 -15.86628723 130.87670898 C-15.86202225 129.86736298 -15.85775726 128.85801697 -15.85336304 127.81808472 C-15.85381622 126.7218277 -15.85426941 125.62557068 -15.85473633 124.49609375 C-15.85137772 123.33296661 -15.8480191 122.16983948 -15.84455872 120.97146606 C-15.83505985 117.12679985 -15.83310629 113.28217722 -15.83203125 109.4375 C-15.82963047 107.44131809 -15.82722797 105.44513617 -15.82457083 103.44895458 C-15.81643778 97.17527639 -15.81398563 90.90161254 -15.81469727 84.62792969 C-15.81529844 78.16078616 -15.80473613 71.69372595 -15.7889536 65.22660351 C-15.77587291 59.66808016 -15.77051356 54.10958404 -15.77115268 48.55104542 C-15.77140742 45.23377432 -15.76764778 41.91659404 -15.75797462 38.59933472 C-15.74819752 34.90078775 -15.75104365 31.20245656 -15.75708008 27.50390625 C-15.75146057 26.40764923 -15.74584106 25.31139221 -15.74005127 24.18191528 C-15.74424576 23.17256927 -15.74844025 22.16322327 -15.75276184 21.12329102 C-15.75194469 19.81256371 -15.75194469 19.81256371 -15.75111103 18.47535706 C-16.17446116 14.26487424 -18.07257322 10.71718022 -20 7 C-18.10435574 6.20788071 -16.20847629 5.41632424 -14.3125 4.625 C-13.25675781 4.18414062 -12.20101563 3.74328125 -11.11328125 3.2890625 C-10.08589844 2.86367187 -9.05851562 2.43828125 -8 2 C-7.10667969 1.61585938 -6.21335937 1.23171875 -5.29296875 0.8359375 C-3 0 -3 0 0 0 Z " fill="#272727" transform="translate(384,160)"/>
<path d="M0 0 C0.00879936 1.6082666 0.00879936 1.6082666 0.01777649 3.24902344 C0.07508048 13.37138485 0.14788224 23.49353301 0.23571491 33.61567688 C0.28037246 38.81912679 0.31963883 44.02249924 0.34643555 49.22607422 C0.37251446 54.25126007 0.41294947 59.27614709 0.46318626 64.30114746 C0.47982394 66.21476514 0.49135747 68.12843448 0.49761391 70.04211426 C0.50728875 72.73021501 0.53538813 75.41755657 0.56762695 78.10546875 C0.56547432 79.28259682 0.56547432 79.28259682 0.5632782 80.48350525 C0.65547995 85.94751445 1.9792064 89.93203311 4 95 C4 96.32 4 97.64 4 99 C-3.59 99 -11.18 99 -19 99 C-19 95 -19 95 -17.52426147 92.21217346 C-15.72302427 88.41631136 -15.61958969 85.79412329 -15.61181641 81.60522461 C-15.60393097 80.53331123 -15.60393097 80.53331123 -15.59588623 79.43974304 C-15.58275584 77.09371645 -15.59139814 74.74837642 -15.6015625 72.40234375 C-15.59953998 70.76379771 -15.59662705 69.12525256 -15.59286499 67.48670959 C-15.58845128 64.0596557 -15.59484267 60.63283702 -15.60888672 57.20581055 C-15.62599173 52.81868016 -15.6161233 48.43209988 -15.59816933 44.04498959 C-15.58731719 40.66402559 -15.59078413 37.28319155 -15.5985527 33.90222359 C-15.60055006 32.28473406 -15.59811177 30.66723263 -15.59111404 29.049757 C-15.58347429 26.78798119 -15.59513743 24.5270909 -15.61181641 22.26538086 C-15.61539658 20.33727821 -15.61539658 20.33727821 -15.61904907 18.370224 C-16.0282528 14.75005113 -17.06169253 13.01556583 -19 10 C-19 8.68 -19 7.36 -19 6 C-16.39802798 4.99394407 -13.79370638 3.99497475 -11.1875 3 C-10.08051758 2.57074219 -10.08051758 2.57074219 -8.95117188 2.1328125 C-8.23896484 1.86210937 -7.52675781 1.59140625 -6.79296875 1.3125 C-6.1383667 1.06113281 -5.48376465 0.80976563 -4.80932617 0.55078125 C-3 0 -3 0 0 0 Z " fill="#272726" transform="translate(323,209)"/>
<path d="M0 0 C5.51802713 0.44144217 8.6342768 1.61433711 13 5 C13.66386719 5.46148437 14.32773437 5.92296875 15.01171875 6.3984375 C21.30460638 11.16753903 23.20480889 16.45452577 25 24 C25.51570328 28.30879403 25.58163462 32.55812348 25.57421875 36.89453125 C25.58838333 38.08495529 25.60254791 39.27537933 25.61714172 40.50187683 C25.65868421 44.27217787 25.6741955 48.04200367 25.6875 51.8125 C25.72620593 56.77741544 25.77495574 61.74221087 25.82421875 66.70703125 C25.83882645 68.47169235 25.83882645 68.47169235 25.85372925 70.27200317 C25.93677414 78.5478794 26.25219263 86.75654419 27 95 C23.71855593 95.90075444 21.21068166 95.99644083 17.8125 95.625 C16.93207031 95.53476562 16.05164063 95.44453125 15.14453125 95.3515625 C13 95 13 95 12 94 C11.88667555 91.97785082 11.84314062 89.95176675 11.82641602 87.92651367 C11.80618126 85.97263985 11.80618126 85.97263985 11.78553772 83.97929382 C11.78047777 83.27759253 11.77541782 82.57589123 11.77020454 81.85292625 C11.75379118 79.65254224 11.7305441 77.45232885 11.70530701 75.25202942 C11.63460637 68.99338341 11.57491923 62.73466076 11.52319336 56.47583008 C11.49108433 52.64903546 11.44971283 48.82242563 11.40299797 44.99578285 C11.38714197 43.54599716 11.37474636 42.09616881 11.36609077 40.64632225 C11.27786092 26.05583262 10.97591284 10.97591284 0 0 Z " fill="#282828" transform="translate(458,211)"/>
<path d="M0 0 C3.59298197 1.6253966 4.65522969 3.98857044 6.51171875 7.375 C7.50296297 9.34651407 7.50296297 9.34651407 9.625 10.1875 C10.79861217 13.70833651 10.96849368 17.0301293 11.15625 20.703125 C11.19778198 21.48439758 11.23931396 22.26567017 11.28210449 23.07061768 C11.90853511 35.87117609 11.98970049 48.69414069 12.17724609 61.50683594 C12.2290146 64.95775297 12.2861554 68.40855104 12.34375 71.859375 C12.35732544 72.90937683 12.37090088 73.95937866 12.3848877 75.04119873 C12.40160522 76.0237262 12.41832275 77.00625366 12.43554688 78.01855469 C12.44807495 78.87471375 12.46060303 79.7308728 12.47351074 80.61297607 C12.64290721 83.49182869 13.15090092 86.34290554 13.625 89.1875 C8.675 89.1875 3.725 89.1875 -1.375 89.1875 C-1.36726562 86.92648437 -1.35953125 84.66546875 -1.3515625 82.3359375 C-1.34083506 71.3199608 -1.50240388 60.3065868 -1.69238281 49.29248047 C-1.73097115 46.96181049 -1.76576767 44.6310748 -1.796875 42.30029297 C-1.84279567 38.87968171 -1.90062703 35.45944682 -1.9609375 32.0390625 C-1.97248871 31.01173004 -1.98403992 29.98439758 -1.99594116 28.92593384 C-2.15682884 20.94719359 -3.38588731 13.44829313 -5.1875 5.6875 C-5.375 3.1875 -5.375 3.1875 -4.25 1.25 C-2.375 0.1875 -2.375 0.1875 0 0 Z " fill="#282828" transform="translate(187.375,216.8125)"/>
<path d="M0 0 C0.99 0.33 1.98 0.66 3 1 C3 1.66 3 2.32 3 3 C1.7934375 4.11375 1.7934375 4.11375 0.5625 5.25 C-2.37764816 8.40528095 -2.57254363 9.81092755 -3 14 C-3.32871094 14.90363281 -3.65742188 15.80726563 -3.99609375 16.73828125 C-6.53461173 24.9859953 -6.17009688 34.89669778 -2.3671875 42.69921875 C-1.91601562 43.45847656 -1.46484375 44.21773438 -1 45 C-0.48695313 45.87269531 0.02609375 46.74539063 0.5546875 47.64453125 C2.53704534 50.41387665 4.10635861 52.18925508 7 54 C14.02425861 54.83393025 20.40891011 53.37399438 27 51 C26.8203125 53.29296875 26.8203125 53.29296875 26 56 C19.02854427 61.71857846 11.17575291 62.78388215 2.42578125 62.390625 C-4.46801063 61.60455979 -10.32446549 59.37554392 -15 54 C-20.87730435 45.12050505 -21.80936133 37.61162637 -21 27 C-19.49709157 20.33492783 -17.34188907 15.42985923 -12 11 C-11.21625 10.195625 -10.4325 9.39125 -9.625 8.5625 C-7.56476464 6.55131786 -5.50433269 4.56197701 -3.375 2.625 C-2.80523437 2.10164062 -2.23546875 1.57828125 -1.6484375 1.0390625 C-0.83246094 0.52472656 -0.83246094 0.52472656 0 0 Z " fill="#262625" transform="translate(132,246)"/>
<path d="M0 0 C2.78437803 2.20160124 5.25143943 4.54564175 7.6875 7.125 C7.3575 7.785 7.0275 8.445 6.6875 9.125 C6.28660156 8.65449219 5.88570313 8.18398437 5.47265625 7.69921875 C1.0149083 2.81692338 -2.89999369 0.65178722 -9.3125 -0.875 C-8.83039063 -0.23433594 -8.34828125 0.40632812 -7.8515625 1.06640625 C1.47351249 13.83604976 0.81713219 27.08181754 1.00390625 42.41796875 C1.02453128 43.85956847 1.04552896 45.30116291 1.06687927 46.74275208 C1.12152812 50.49907084 1.17118439 54.25543885 1.21972656 58.01184082 C1.27036491 61.8601509 1.32582777 65.7083913 1.38085938 69.55664062 C1.48773915 77.07936919 1.58888656 84.6021577 1.6875 92.125 C8.6175 92.62 8.6175 92.62 15.6875 93.125 C15.3575 91.145 15.0275 89.165 14.6875 87.125 C16.75 89.4375 16.75 89.4375 18.6875 92.125 C18.1925 93.61 18.1925 93.61 17.6875 95.125 C14.70827407 95.15183987 11.72928705 95.17176037 8.75 95.1875 C7.89986328 95.19587891 7.04972656 95.20425781 6.17382812 95.21289062 C5.36494141 95.21611328 4.55605469 95.21933594 3.72265625 95.22265625 C2.9737915 95.22789307 2.22492676 95.23312988 1.45336914 95.23852539 C-0.3125 95.125 -0.3125 95.125 -1.3125 94.125 C-1.42087179 91.88302409 -1.45881717 89.63763107 -1.47021484 87.39306641 C-1.47529556 86.68882538 -1.48037628 85.98458435 -1.48561096 85.25900269 C-1.496341 83.7230111 -1.50495077 82.18700363 -1.51173019 80.65098953 C-1.52351049 78.21144716 -1.542967 75.77208254 -1.56484985 73.33261108 C-1.62645198 66.39383984 -1.68027112 59.45508086 -1.71386719 52.51611328 C-1.73495855 48.27430361 -1.77038991 44.03280827 -1.81462479 39.79117966 C-1.82868728 38.18147899 -1.83748493 36.57172258 -1.84067917 34.96196365 C-1.8297291 17.97414427 -1.8297291 17.97414427 -9.3125 3.125 C-13.95275688 -1.43134627 -17.68236527 -1.53283796 -23.99462891 -1.48339844 C-30.86541935 -1.21088475 -36.78972458 0.959031 -42.3125 5.125 C-43.5760136 6.98535335 -43.5760136 6.98535335 -44.3125 9.125 C-44.68375 10.0325 -45.055 10.94 -45.4375 11.875 C-45.870625 12.98875 -45.870625 12.98875 -46.3125 14.125 C-45.1059375 14.35574219 -43.899375 14.58648437 -42.65625 14.82421875 C-23.26005224 18.70143365 -23.26005224 18.70143365 -17 27.375 C-10.85107407 37.56751309 -9.03902196 49.37730561 -10.8125 61.1875 C-13.87892256 73.51493027 -20.81940176 84.84247805 -31.5625 91.6875 C-34.078125 93.19140625 -34.078125 93.19140625 -36.3125 94.125 C-37.7975 93.63 -37.7975 93.63 -39.3125 93.125 C-36.3425 91.475 -33.3725 89.825 -30.3125 88.125 C-31.6325 87.135 -32.9525 86.145 -34.3125 85.125 C-33.136875 84.63 -31.96125 84.135 -30.75 83.625 C-22.6722181 79.55036665 -18.23339122 72.47937703 -15.3125 64.125 C-12.34562642 53.59143826 -13.29603647 40.81007011 -18.3125 31.125 C-19.90874606 27.98325212 -19.90874606 27.98325212 -22.23828125 27.69140625 C-34.27322437 27.67170913 -44.45180064 31.37394652 -53.0234375 39.80859375 C-53.44882812 40.24300781 -53.87421875 40.67742187 -54.3125 41.125 C-53.77023019 37.32911134 -52.11122437 35.65288007 -49.3125 33.125 C-51.6225 33.785 -53.9325 34.445 -56.3125 35.125 C-49.73906415 27.83840837 -40.12991076 25.72046073 -30.7109375 24.484375 C-28.30546563 24.25054011 -28.30546563 24.25054011 -26.3125 23.125 C-32.99215594 20.09529891 -38.53513498 19.75126822 -45.8125 19.9375 C-47.33230469 19.95780273 -47.33230469 19.95780273 -48.8828125 19.97851562 C-51.35994404 20.01356937 -53.83592927 20.06270236 -56.3125 20.125 C-55.72658578 11.64276492 -52.74524027 7.73674489 -46.3125 2.125 C-32.68080442 -6.87191908 -14.31186114 -8.10105348 0 0 Z " fill="#0E0E0B" transform="translate(469.3125,212.875)"/>
<path d="M0 0 C8.25 0 16.5 0 25 0 C25.495 1.98 25.495 1.98 26 4 C25.49210937 4.3403125 24.98421875 4.680625 24.4609375 5.03125 C3.11864142 20.05878432 -5.0677121 54.57621207 -14.5871582 77.83422852 C-17.60468371 85.20355039 -20.6456415 92.56130243 -23.75 99.89453125 C-24.05169601 100.60829926 -24.35339203 101.32206726 -24.66423035 102.0574646 C-26.10408291 105.46269868 -27.54877887 108.86574208 -29.0012207 112.265625 C-29.76825317 114.07740234 -29.76825317 114.07740234 -30.55078125 115.92578125 C-31.00106689 116.98192627 -31.45135254 118.03807129 -31.9152832 119.1262207 C-32.91057829 121.76309184 -33.5459027 124.2246059 -34 127 C-34.33 127 -34.66 127 -35 127 C-35.12375 126.195625 -35.2475 125.39125 -35.375 124.5625 C-35.58125 123.716875 -35.7875 122.87125 -36 122 C-36.66 121.67 -37.32 121.34 -38 121 C-38.625 117.9375 -38.625 117.9375 -39 115 C-38.34 115.66 -37.68 116.32 -37 117 C-32.73304374 108.90479099 -29.2463252 100.53337074 -25.8125 92.0625 C-24.58462861 89.04711343 -23.35352776 86.03305565 -22.12109375 83.01953125 C-21.79703552 82.22662689 -21.47297729 81.43372253 -21.13909912 80.61679077 C-18.54646308 74.29114399 -15.89276404 67.99249934 -13.22265625 61.69921875 C-12.40967482 59.77794495 -11.59676774 57.85663968 -10.78393555 55.93530273 C-9.59250845 53.11967995 -8.39863952 50.30524863 -7.19595337 47.49441528 C1.66916138 28.44633386 1.66916138 28.44633386 4 8 C2.74458443 5.48916886 1.49936512 5.12874554 -1 4 C-0.67 2.68 -0.34 1.36 0 0 Z " fill="#181815" transform="translate(122,171)"/>
<path d="M0 0 C0.20625 0.639375 0.4125 1.27875 0.625 1.9375 C1.89538209 4.34925077 1.89538209 4.34925077 5.125 4.75 C6.548125 4.87375 6.548125 4.87375 8 5 C8.33 4.34 8.66 3.68 9 3 C16.91345004 12.91101995 19.18358065 24.49021009 18 37 C16.12254978 49.2816535 10.40988234 58.09249149 2 67 C1.67 66.34 1.34 65.68 1 65 C1.495 64.01 1.495 64.01 2 63 C1.17242187 63.48082031 0.34484375 63.96164062 -0.5078125 64.45703125 C-4.36467547 66.16112619 -7.73033687 66.54693487 -11.875 66.6875 C-12.56335938 66.72166016 -13.25171875 66.75582031 -13.9609375 66.79101562 C-15.64008613 66.87264091 -17.32001168 66.9380157 -19 67 C-19.66 65.68 -20.32 64.36 -21 63 C-20.17242187 63.23783203 -20.17242187 63.23783203 -19.328125 63.48046875 C-12.73559333 64.95162095 -5.82517824 64.91902151 0.08984375 61.4453125 C8.59032236 55.01345752 12.83062501 47.18082864 14.52734375 36.76171875 C15.72460865 25.31371393 13.56390909 16.98105829 8 7 C-1.99660194 6.42572712 -10.01158705 8.19796185 -18.30859375 13.9140625 C-20 15 -20 15 -23 16 C-24.16666667 17.91666667 -24.16666667 17.91666667 -25 20 C-25.33 20.66 -25.66 21.32 -26 22 C-26.66 22 -27.32 22 -28 22 C-26.52307692 17.32307692 -26.52307692 17.32307692 -23.875 15.6875 C-23.25625 15.460625 -22.6375 15.23375 -22 15 C-22.33 14.34 -22.66 13.68 -23 13 C-29.66898078 15.15761143 -34.23414488 20.09397267 -39 25 C-35.82463062 17.20591153 -27.24538656 11.40179606 -19.875 7.8125 C-13.84870535 5.28124443 -7.3971565 4.20117306 -1 3 C-1.66 2.34 -2.32 1.68 -3 1 C-2.01 0.67 -1.02 0.34 0 0 Z " fill="#080705" transform="translate(157,234)"/>
<path d="M0 0 C2.97922593 -0.02683987 5.95821295 -0.04676037 8.9375 -0.0625 C9.78763672 -0.07087891 10.63777344 -0.07925781 11.51367188 -0.08789062 C12.32255859 -0.09111328 13.13144531 -0.09433594 13.96484375 -0.09765625 C14.7137085 -0.10289307 15.46257324 -0.10812988 16.23413086 -0.11352539 C18 0 18 0 19 1 C19.16017166 3.80976518 19.25950534 6.59773596 19.31640625 9.41015625 C19.33718735 10.25219101 19.35796844 11.09422577 19.37937927 11.96177673 C19.44496812 14.66193179 19.50380276 17.36218717 19.5625 20.0625 C19.60567637 21.88868241 19.64929036 23.71485454 19.69335938 25.54101562 C19.80065894 30.02723992 19.90189966 34.5135655 20 39 C20.39324463 37.84387207 20.78648926 36.68774414 21.19165039 35.49658203 C21.72251107 33.95855253 22.25369698 32.42063526 22.78515625 30.8828125 C23.04252563 30.12331299 23.29989502 29.36381348 23.56506348 28.58129883 C27.33052931 17.74353447 33.58996803 7.6733281 43.5625 1.5625 C49.88471942 -1.32588652 58.43865149 -1.24575876 64.92578125 1.0234375 C65.95251953 1.50683594 65.95251953 1.50683594 67 2 C63.71904237 3.09365254 63.16169151 2.84388841 60 2 C58.27268559 1.90978696 56.54216105 1.86989022 54.8125 1.875 C53.93207031 1.87242187 53.05164063 1.86984375 52.14453125 1.8671875 C50.01796809 1.76134967 50.01796809 1.76134967 49 3 C51.64 3.66 54.28 4.32 57 5 C57 5.66 57 6.32 57 7 C55.989375 6.79375 54.97875 6.5875 53.9375 6.375 C47.73703306 5.78447934 43.73509411 7.13273783 38.9375 11 C26.35097076 22.85757967 23.46167312 40.64888669 21 57 C20.67 57 20.34 57 20 57 C19.93941406 56.28972656 19.87882812 55.57945312 19.81640625 54.84765625 C19.69072266 53.46900391 19.69072266 53.46900391 19.5625 52.0625 C19.48128906 51.14597656 19.40007812 50.22945313 19.31640625 49.28515625 C19.23955024 47.03840268 19.23955024 47.03840268 18 46 C17.08943155 40.37514374 16.91521709 35.02593054 17.12109375 29.34375 C17.14470474 28.55601196 17.16831573 27.76827393 17.19264221 26.95666504 C17.26846612 24.47088836 17.35283319 21.98548957 17.4375 19.5 C17.49080236 17.80210107 17.54354201 16.10418437 17.59570312 14.40625 C17.72396931 10.27059964 17.85989151 6.13526541 18 2 C13.05 2 8.1 2 3 2 C3 3.65 3 5.3 3 7 C1.68 5.68 0.36 4.36 -1 3 C-0.67 2.01 -0.34 1.02 0 0 Z " fill="#151513" transform="translate(211,208)"/>
<path d="M0 0 C2.8100346 1.79363911 4.50940468 3.01880935 6 6 C6.5811138 13.08958838 6.5811138 13.08958838 4.125 16.9375 C0.89661432 20.07093316 -1.44929709 20.39218693 -5.9609375 20.359375 C-9.38006698 19.7567698 -10.93189052 17.63213933 -13 15 C-14.7576822 11.48463561 -13.94434624 7.7179506 -13 4 C-9.47226097 -0.3829485 -5.33396594 -1.09912025 0 0 Z " fill="#242423" transform="translate(318,173)"/>
<path d="M0 0 C8.25 0 16.5 0 25 0 C25.33 1.32 25.66 2.64 26 4 C25.49210937 4.37511719 24.98421875 4.75023437 24.4609375 5.13671875 C15.47222486 11.75798806 15.47222486 11.75798806 8 20 C6 18 6 18 5.8046875 15.6171875 C5.83949219 14.25980469 5.83949219 14.25980469 5.875 12.875 C5.89304687 11.96492187 5.91109375 11.05484375 5.9296875 10.1171875 C5.96449219 9.06917969 5.96449219 9.06917969 6 8 C5.34 8 4.68 8 4 8 C3.67 7.34 3.34 6.68 3 6 C0.98330173 4.86649466 0.98330173 4.86649466 -1 4 C-0.67 2.68 -0.34 1.36 0 0 Z " fill="#20201F" transform="translate(122,171)"/>
<path d="M0 0 C0.99 0.33 1.98 0.66 3 1 C3.7388664 4.30792524 4.125391 7.3651453 4.12698364 10.75228882 C4.12980347 11.67987 4.13262329 12.60745117 4.13552856 13.56314087 C4.13350433 14.56888153 4.1314801 15.57462219 4.12939453 16.61083984 C4.13114685 17.67987549 4.13289917 18.74891113 4.13470459 19.8503418 C4.13910752 23.38722353 4.13618847 26.92405525 4.1328125 30.4609375 C4.13348648 32.92892466 4.1344573 35.39691175 4.13571167 37.86489868 C4.13718694 43.04486725 4.13504136 48.22481859 4.13037109 53.40478516 C4.12470376 60.00924762 4.12793479 66.61366918 4.13394356 73.21813011 C4.13757932 78.32113953 4.13639629 83.42413947 4.13381577 88.5271492 C4.13315326 90.95974355 4.13395102 93.39233879 4.13629532 95.8249321 C4.1456374 108.25547486 4.11685896 120.61170171 3 133 C2.01 133.33 1.02 133.66 0 134 C0.16238096 133.28472169 0.32476192 132.56944338 0.49206352 131.83248997 C0.99236506 129.04257596 1.12581326 126.51119182 1.12698364 123.68016052 C1.12980347 122.62729858 1.13262329 121.57443665 1.13552856 120.4896698 C1.13350433 119.34508804 1.1314801 118.20050629 1.12939453 117.02124023 C1.13202301 115.20098831 1.13202301 115.20098831 1.13470459 113.34396362 C1.13834752 110.0238271 1.13749951 106.70375303 1.1343255 103.38362002 C1.1317899 99.90614155 1.13414274 96.42866571 1.13571167 92.95118713 C1.13752961 87.11304242 1.13513663 81.27491037 1.13037109 75.43676758 C1.12492664 68.68901825 1.12669396 61.94129913 1.1321975 55.19355053 C1.13673626 49.39640496 1.13737551 43.59926847 1.13475883 37.8021217 C1.1332006 34.34127085 1.13298995 30.88043421 1.13629532 27.41958427 C1.13972173 23.56283266 1.13497181 19.70611485 1.12939453 15.84936523 C1.13243088 14.12945625 1.13243088 14.12945625 1.13552856 12.37480164 C1.13270874 11.32475952 1.12988892 10.27471741 1.12698364 9.19285583 C1.12660662 8.28124412 1.12622959 7.3696324 1.12584114 6.43039608 C1.00759928 4.1467665 0.6425835 2.18795791 0 0 Z " fill="#191918" transform="translate(336,170)"/>
<path d="M0 0 C0.556875 0.226875 1.11375 0.45375 1.6875 0.6875 C0.90375 1.43 0.12 2.1725 -0.6875 2.9375 C-4.15828525 6.57356074 -5.47059313 10.07894289 -7.3125 14.6875 C-6.1059375 14.91824219 -4.899375 15.14898437 -3.65625 15.38671875 C12.12935303 18.55503716 12.12935303 18.55503716 18.6875 23.6875 C18.1925 25.1725 18.1925 25.1725 17.6875 26.6875 C16.6975 26.6875 15.7075 26.6875 14.6875 26.6875 C14.6875 25.6975 14.6875 24.7075 14.6875 23.6875 C7.33289647 21.00144455 0.85657464 20.2970835 -6.9375 20.5 C-8.44376953 20.52030273 -8.44376953 20.52030273 -9.98046875 20.54101562 C-12.42506864 20.57593848 -14.86847734 20.62497252 -17.3125 20.6875 C-16.93380107 14.76086167 -16.31268025 11.78702487 -12.0625 7.375 C-10.91007812 6.14330078 -10.91007812 6.14330078 -9.734375 4.88671875 C-3.78903671 -0.51203199 -3.78903671 -0.51203199 0 0 Z " fill="#161614" transform="translate(430.3125,212.3125)"/>
<path d="M0 0 C0.57105469 0.46019531 1.14210937 0.92039063 1.73046875 1.39453125 C-2.07587695 0.72282319 -5.62159941 -0.33293439 -9.26953125 -1.60546875 C-8.77453125 -0.12046875 -8.77453125 -0.12046875 -8.26953125 1.39453125 C-8.94628906 1.07226562 -9.62304688 0.75 -10.3203125 0.41796875 C-18.34980556 -2.36842487 -28.5164764 -1.50108009 -36.171875 2.0390625 C-39.58700517 4.24585983 -41.97318695 7.07136633 -44.26953125 10.39453125 C-44.92953125 9.73453125 -45.58953125 9.07453125 -46.26953125 8.39453125 C-45.60953125 7.40453125 -44.94953125 6.41453125 -44.26953125 5.39453125 C-45.25953125 5.39453125 -46.24953125 5.39453125 -47.26953125 5.39453125 C-44.38618314 2.2126718 -41.75463634 0.43167177 -37.83203125 -1.29296875 C-36.90519531 -1.70933594 -35.97835937 -2.12570313 -35.0234375 -2.5546875 C-24.67001307 -6.50514306 -9.31190403 -6.58725053 0 0 Z " fill="#11110E" transform="translate(184.26953125,212.60546875)"/>
<path d="M0 0 C0.33 0 0.66 0 1 0 C1.66 19.47 2.32 38.94 3 59 C9.93 59.495 9.93 59.495 17 60 C16.67 58.02 16.34 56.04 16 54 C18.0625 56.3125 18.0625 56.3125 20 59 C19.67 59.99 19.34 60.98 19 62 C16.02077407 62.02683987 13.04178705 62.04676037 10.0625 62.0625 C9.21236328 62.07087891 8.36222656 62.07925781 7.48632812 62.08789062 C6.67744141 62.09111328 5.86855469 62.09433594 5.03515625 62.09765625 C4.2862915 62.10289307 3.53742676 62.10812988 2.76586914 62.11352539 C1 62 1 62 0 61 C-0.09391296 59.09756238 -0.11743658 57.19161541 -0.11352539 55.28686523 C-0.11344986 54.0656749 -0.11337433 52.84448456 -0.11329651 51.58628845 C-0.10818911 50.24372314 -0.10297311 48.90115825 -0.09765625 47.55859375 C-0.09579199 46.19238842 -0.09436813 44.82618243 -0.09336853 43.4599762 C-0.08954394 39.85798305 -0.07971417 36.25603 -0.06866455 32.65405273 C-0.05844916 28.98096255 -0.05387064 25.30786591 -0.04882812 21.63476562 C-0.03809184 14.42315877 -0.02101614 7.211585 0 0 Z " fill="#080707" transform="translate(468,246)"/>
<path d="M0 0 C0.33 0 0.66 0 1 0 C1.74430469 4.01094425 2.1383193 7.83293235 2.18945312 11.91015625 C2.21452942 13.62223267 2.21452942 13.62223267 2.2401123 15.36889648 C2.25368774 16.58778564 2.26726318 17.8066748 2.28125 19.0625 C2.29965942 20.32715088 2.31806885 21.59180176 2.33703613 22.89477539 C2.4056028 27.61350167 2.46610411 32.33230581 2.52606201 37.05114746 C2.58531433 41.68001061 2.6513696 46.30874655 2.71875 50.9375 C2.73232544 52.15638916 2.74590088 53.37527832 2.7598877 54.63110352 C2.78496399 56.34317993 2.78496399 56.34317993 2.81054688 58.08984375 C2.82307495 59.08878662 2.83560303 60.08772949 2.84851074 61.11694336 C3.00732954 64.13949156 3.44814632 67.02614481 4 70 C5.485 70.495 5.485 70.495 7 71 C6.67 71.99 6.34 72.98 6 74 C-0.27 74 -6.54 74 -13 74 C-13 72.02 -13 70.04 -13 68 C-12.67 69.32 -12.34 70.64 -12 72 C-7.05 72 -2.1 72 3 72 C2.01 69.03 2.01 69.03 1 66 C0.7215271 62.77285767 0.7215271 62.77285767 0.68115234 59.26025391 C0.66608391 58.29333618 0.66608391 58.29333618 0.65071106 57.30688477 C0.62005956 55.19678562 0.60289495 53.08681226 0.5859375 50.9765625 C0.56721126 49.50539074 0.54763678 48.03422955 0.5272522 46.56307983 C0.47607851 42.70642349 0.43637422 38.84973239 0.39910889 34.99291992 C0.35897624 31.05118311 0.30792631 27.10958907 0.2578125 23.16796875 C0.16122822 15.4454107 0.07676799 7.72278317 0 0 Z " fill="#141413" transform="translate(198,234)"/>
<path d="M0 0 C-0.33 0.99 -0.66 1.98 -1 3 C-3.109375 4.02734375 -3.109375 4.02734375 -5.75 4.9375 C-9.8164913 6.44210178 -12.71213034 8.12311404 -16 11 C-16.66 11 -17.32 11 -18 11 C-18.309375 11.61875 -18.61875 12.2375 -18.9375 12.875 C-19.625 14.25 -20.3125 15.625 -21 17 C-21.66 17 -22.32 17 -23 17 C-21.52307692 12.32307692 -21.52307692 12.32307692 -18.875 10.6875 C-18.25625 10.460625 -17.6375 10.23375 -17 10 C-17.33 9.34 -17.66 8.68 -18 8 C-24.66898078 10.15761143 -29.23414488 15.09397267 -34 20 C-30.39128746 11.14225103 -20.50234097 5.35261656 -12.078125 1.76171875 C-7.92243161 0.23848527 -4.44022675 -0.10091424 0 0 Z " fill="#191916" transform="translate(152,239)"/>
<path d="M0 0 C0.66 0 1.32 0 2 0 C1.82749162 7.76287716 -2.40993304 14.37091058 -7.796875 19.81640625 C-9.4375 21.1875 -9.4375 21.1875 -12 23 C-11.67 21.68 -11.34 20.36 -11 19 C-11.82757813 19.48082031 -12.65515625 19.96164062 -13.5078125 20.45703125 C-17.36467547 22.16112619 -20.73033687 22.54693487 -24.875 22.6875 C-25.56335938 22.72166016 -26.25171875 22.75582031 -26.9609375 22.79101562 C-28.64008613 22.87264091 -30.32001168 22.9380157 -32 23 C-32.66 21.68 -33.32 20.36 -34 19 C-33.17242187 19.23783203 -33.17242187 19.23783203 -32.328125 19.48046875 C-25.72986923 20.95289831 -18.84670458 20.90333476 -12.9140625 17.4609375 C-6.83652365 12.82216295 -2.45821132 7.22099574 0 0 Z " fill="#10100D" transform="translate(170,278)"/>
<path d="M0 0 C0.33 0 0.66 0 1 0 C0.98952637 0.75095947 0.97905273 1.50191895 0.96826172 2.27563477 C0.92648109 5.70455529 0.90060378 9.13342207 0.875 12.5625 C0.85824219 13.74392578 0.84148437 14.92535156 0.82421875 16.14257812 C0.78082093 23.88908815 1.15069246 30.12623653 5 37 C4 38 4 38 1.77514648 38.11352539 C0.81680908 38.10828857 -0.14152832 38.10305176 -1.12890625 38.09765625 C-2.68061523 38.09282227 -2.68061523 38.09282227 -4.26367188 38.08789062 C-5.35228516 38.07951172 -6.44089844 38.07113281 -7.5625 38.0625 C-9.2012207 38.05573242 -9.2012207 38.05573242 -10.87304688 38.04882812 C-13.58208495 38.03699826 -16.29101599 38.02051543 -19 38 C-19 36.68 -19 35.36 -19 34 C-18.01 33.505 -18.01 33.505 -17 33 C-17 33.66 -17 34.32 -17 35 C-11.06 35.33 -5.12 35.66 1 36 C1 35.01 1 34.02 1 33 C0.34 32.67 -0.32 32.34 -1 32 C-1.02469321 27.7641643 -1.04285671 23.52836658 -1.05493164 19.29248047 C-1.05996474 17.8510668 -1.06679173 16.40965824 -1.07543945 14.96826172 C-1.08754983 12.89809915 -1.09323847 10.82800399 -1.09765625 8.7578125 C-1.10551147 6.88826904 -1.10551147 6.88826904 -1.11352539 4.98095703 C-1 2 -1 2 0 0 Z " fill="#0E0E0D" transform="translate(230,270)"/>
<path d="M0 0 C-1.32 0 -2.64 0 -4 0 C-4 0.66 -4 1.32 -4 2 C-4.85271484 2.34611328 -4.85271484 2.34611328 -5.72265625 2.69921875 C-12.37767295 5.51010226 -17.92933038 8.76233228 -23 14 C-22.45773019 10.20411134 -20.79872437 8.52788007 -18 6 C-20.31 6.66 -22.62 7.32 -25 8 C-21.99400508 4.61915679 -19.24872546 2.98593439 -15.0625 1.3125 C-14.04285156 0.89613281 -13.02320313 0.47976562 -11.97265625 0.05078125 C-4.25316832 -2.67792079 -4.25316832 -2.67792079 0 0 Z " fill="#181715" transform="translate(438,240)"/>
<path d="M0 0 C0.33 0.66 0.66 1.32 1 2 C0.34 2 -0.32 2 -1 2 C-1.2236337 3.41433206 -1.42826476 4.83167618 -1.625 6.25 C-1.74101562 7.03890625 -1.85703125 7.8278125 -1.9765625 8.640625 C-2.18326994 11.39358701 -2.18326994 11.39358701 0 15 C-3.3 15 -6.6 15 -10 15 C-9.48142076 9.6845628 -8.00239892 6.33679844 -5 2 C-2.25 0.5625 -2.25 0.5625 0 0 Z " fill="#282728" transform="translate(141,216)"/>
<path d="M0 0 C6.35763057 0.65206467 12.67934007 2.24747902 16.91015625 7.265625 C18.37494573 9.4680035 19.73481601 11.67801527 21 14 C20.67 14.66 20.34 15.32 20 16 C18.02 13.03 16.04 10.06 14 7 C9.28941438 7.83462035 9.28941438 7.83462035 6 9 C0.42857143 3.85714286 0.42857143 3.85714286 0 0 Z " fill="#1E1D1C" transform="translate(175,211)"/>
<path d="M0 0 C-0.61848958 1.953125 -1.23697917 3.90625 -1.85546875 5.859375 C-2.27068727 8.54537385 -2.27068727 8.54537385 1 12 C-2.63 12.33 -6.26 12.66 -10 13 C-8.54263566 4.74160207 -8.54263566 4.74160207 -6.125 1.4375 C-4 0 -4 0 0 0 Z " fill="#272626" transform="translate(424,218)"/>
<path d="M0 0 C0.33 0 0.66 0 1 0 C1.19546065 4.30013434 0.9955516 6.00889681 -1 10 C5.27 10 11.54 10 18 10 C17.34 8.68 16.68 7.36 16 6 C15.875 2.75 15.875 2.75 16 0 C16.33 0 16.66 0 17 0 C17.28875 1.0725 17.5775 2.145 17.875 3.25 C18.72820109 6.09400364 19.5636503 8.43508983 21 11 C20 12 20 12 17.77514648 12.11352539 C16.81680908 12.10828857 15.85847168 12.10305176 14.87109375 12.09765625 C13.31938477 12.09282227 13.31938477 12.09282227 11.73632812 12.08789062 C10.64771484 12.07951172 9.55910156 12.07113281 8.4375 12.0625 C6.7987793 12.05573242 6.7987793 12.05573242 5.12695312 12.04882812 C2.41791505 12.03699826 -0.29101599 12.02051543 -3 12 C-3 8 -3 8 -1 5 C-0.61500109 3.34450469 -0.27206865 1.6777567 0 0 Z " fill="#0D0D0C" transform="translate(368,296)"/>
<path d="M0 0 C0.12375 0.639375 0.2475 1.27875 0.375 1.9375 C0.684375 2.9584375 0.684375 2.9584375 1 4 C1.66 4.33 2.32 4.66 3 5 C2.34 5.66 1.68 6.32 1 7 C6.61 7 12.22 7 18 7 C18.33 6.34 18.66 5.68 19 5 C19.66 6.32 20.32 7.64 21 9 C20 10 20 10 17.77514648 10.11352539 C16.81680908 10.10828857 15.85847168 10.10305176 14.87109375 10.09765625 C13.31938477 10.09282227 13.31938477 10.09282227 11.73632812 10.08789062 C10.64771484 10.07951172 9.55910156 10.07113281 8.4375 10.0625 C6.7987793 10.05573242 6.7987793 10.05573242 5.12695312 10.04882812 C2.41791505 10.03699826 -0.29101599 10.02051543 -3 10 C-3 5.66905042 -2.03435531 3.72965139 0 0 Z " fill="#0E0E0C" transform="translate(307,298)"/>
<path d="M0 0 C-0.49260294 4.26922548 -2.94307131 7.17768886 -6 10 C-9.18817871 12.28308173 -12.39906556 14.43145737 -16 16 C-16.99 15.67 -17.98 15.34 -19 15 C-16.03 13.35 -13.06 11.7 -10 10 C-11.32 9.01 -12.64 8.02 -14 7 C-13.18595703 6.61908203 -13.18595703 6.61908203 -12.35546875 6.23046875 C-11.64003906 5.88628906 -10.92460937 5.54210937 -10.1875 5.1875 C-9.47980469 4.85105469 -8.77210938 4.51460938 -8.04296875 4.16796875 C-5.94330787 3.0948316 -5.94330787 3.0948316 -4.42578125 1.36328125 C-3 0 -3 0 0 0 Z " fill="#141411" transform="translate(449,291)"/>
<path d="M0 0 C7.34166968 0.17182631 14.00423907 1.50620746 20 6 C20.77734375 8.16796875 20.77734375 8.16796875 21 10 C19.68 10 18.36 10 17 10 C17 9.01 17 8.02 17 7 C9.06159801 4.09169144 1.41442956 3.35161161 -7 3 C-7 2.67 -7 2.34 -7 2 C-4.69 2 -2.38 2 0 2 C0 1.34 0 0.68 0 0 Z " fill="#0E0D0A" transform="translate(428,229)"/>
<path d="M0 0 C0.33 0 0.66 0 1 0 C1.33 21.45 1.66 42.9 2 65 C1.67 65 1.34 65 1 65 C-1.26079123 57.83954175 -1.17588954 51.21332321 -0.9765625 43.75 C-0.95153656 42.49614502 -0.92651062 41.24229004 -0.90072632 39.95043945 C-0.83278856 36.64260526 -0.75558618 33.33516324 -0.67376709 30.02764893 C-0.59234582 26.64229703 -0.52327926 23.25669455 -0.453125 19.87109375 C-0.3133835 13.24710886 -0.1614107 6.6234904 0 0 Z " fill="#151413" transform="translate(482,235)"/>
<path d="M0 0 C0.99 0.33 1.98 0.66 3 1 C3 21.46 3 41.92 3 63 C2.67 63 2.34 63 2 63 C1.98969254 62.26972595 1.97938507 61.5394519 1.96876526 60.78704834 C1.87074113 53.90106277 1.76821969 47.01515722 1.66066074 40.12931442 C1.60552345 36.58933307 1.55211839 33.04934332 1.50268555 29.50927734 C1.44576415 25.43838687 1.38128443 21.3676465 1.31640625 17.296875 C1.29969376 16.02696716 1.28298126 14.75705933 1.26576233 13.44866943 C1.24581711 12.26774719 1.22587189 11.08682495 1.20532227 9.87011719 C1.18977798 8.83087097 1.1742337 7.79162476 1.15821838 6.72088623 C1.01906411 4.32784603 0.68268893 2.28855925 0 0 Z " fill="#151515" transform="translate(336,170)"/>
<path d="M0 0 C0.66 0.33 1.32 0.66 2 1 C1.505 2.010625 1.01 3.02125 0.5 4.0625 C-2.47426909 12.07452631 -2.26402941 21.66700929 0.75 29.625 C2.39581196 33.15173992 4.32974753 36.13901521 7 39 C3.42793753 37.39873062 0.88926657 35.75573143 -0.9140625 32.1953125 C-2.88728302 26.44912089 -3.4850396 20.97671082 -3.7890625 14.91796875 C-4.04846267 11.32959974 -4.86594888 8.40215337 -6 5 C-5.01 5 -4.02 5 -3 5 C-1.28288757 2.55503957 -1.28288757 2.55503957 0 0 Z " fill="#171614" transform="translate(128,257)"/>
<path d="M0 0 C2 3.75 2 3.75 2 6 C2.99 6.33 3.98 6.66 5 7 C4.67 7.99 4.34 8.98 4 10 C-3.59 10 -11.18 10 -19 10 C-19.33 8.68 -19.66 7.36 -20 6 C-19.34 6 -18.68 6 -18 6 C-18 6.66 -18 7.32 -18 8 C-8.595 7.505 -8.595 7.505 1 7 C0.34 5.02 -0.32 3.04 -1 1 C-0.67 0.67 -0.34 0.34 0 0 Z " fill="#0A0A08" transform="translate(354,298)"/>
<path d="M0 0 C2.33088789 2.87854637 3.83224797 5.61984828 5.1875 9.0625 C5.53167969 9.91972656 5.87585938 10.77695312 6.23046875 11.66015625 C7 14 7 14 7 17 C3.20956819 17.25408976 -0.58208053 17.47403593 -4.375 17.6875 C-5.45523438 17.76033203 -6.53546875 17.83316406 -7.6484375 17.90820312 C-8.6796875 17.96298828 -9.7109375 18.01777344 -10.7734375 18.07421875 C-11.72653809 18.13182373 -12.67963867 18.18942871 -13.66162109 18.2487793 C-14.43328613 18.16668213 -15.20495117 18.08458496 -16 18 C-16.66 17.01 -17.32 16.02 -18 15 C-17.67 14.01 -17.34 13.02 -17 12 C-16.59676514 12.4844458 -16.19353027 12.9688916 -15.77807617 13.46801758 C-13.57152555 15.36917165 -12.42967446 15.4151116 -9.55078125 15.51171875 C-8.27944336 15.56489258 -8.27944336 15.56489258 -6.98242188 15.61914062 C-5.66081055 15.65297852 -5.66081055 15.65297852 -4.3125 15.6875 C-3.41982422 15.72166016 -2.52714844 15.75582031 -1.60742188 15.79101562 C0.59492671 15.87345648 2.79687938 15.94261551 5 16 C4.70351562 15.26007813 4.40703125 14.52015625 4.1015625 13.7578125 C2.16071429 8.89880952 2.16071429 8.89880952 1.375 6.875 C0.98441406 5.88113281 0.98441406 5.88113281 0.5859375 4.8671875 C0 3 0 3 0 0 Z " fill="#181816" transform="translate(90,303)"/>
<path d="M0 0 C0.66 0.33 1.32 0.66 2 1 C1.67 1.66 1.34 2.32 1 3 C7.27 3.33 13.54 3.66 20 4 C20.33 3.01 20.66 2.02 21 1 C21.66 1.99 22.32 2.98 23 4 C22.67 4.66 22.34 5.32 22 6 C14.41 6 6.82 6 -1 6 C-1 2 -1 2 0 0 Z " fill="#090A08" transform="translate(275,302)"/>
<path d="M0 0 C2 3.75 2 3.75 2 6 C2.99 6.33 3.98 6.66 5 7 C4.67 7.99 4.34 8.98 4 10 C-2.27 10 -8.54 10 -15 10 C-15 8.02 -15 6.04 -15 4 C-14.67 5.32 -14.34 6.64 -14 8 C-9.05 8 -4.1 8 1 8 C0.67 5.36 0.34 2.72 0 0 Z " fill="#0B0B0A" transform="translate(200,298)"/>
<path d="M0 0 C2.97922593 -0.02683987 5.95821295 -0.04676037 8.9375 -0.0625 C9.78763672 -0.07087891 10.63777344 -0.07925781 11.51367188 -0.08789062 C12.32255859 -0.09111328 13.13144531 -0.09433594 13.96484375 -0.09765625 C14.7137085 -0.10289307 15.46257324 -0.10812988 16.23413086 -0.11352539 C18 0 18 0 19 1 C19.04080783 2.99958364 19.04254356 5.00045254 19 7 C18.67 7 18.34 7 18 7 C18 5.35 18 3.7 18 2 C13.05 2 8.1 2 3 2 C3 3.65 3 5.3 3 7 C1.68 5.68 0.36 4.36 -1 3 C-0.67 2.01 -0.34 1.02 0 0 Z " fill="#0E0F0E" transform="translate(211,208)"/>
<path d="M0 0 C-1 3 -1 3 -3.21484375 4.16796875 C-4.11332031 4.50441406 -5.01179687 4.84085938 -5.9375 5.1875 C-6.83339844 5.53167969 -7.72929687 5.87585938 -8.65234375 6.23046875 C-11 7 -11 7 -13 7 C-13.33 6.34 -13.66 5.68 -14 5 C-15.65 5.33 -17.3 5.66 -19 6 C-13.89015483 1.33448919 -6.79367748 -0.52259058 0 0 Z " fill="#13130F" transform="translate(152,239)"/>
<path d="M0 0 C1.6875 1.5234375 1.6875 1.5234375 3 3 C1.83984375 3.05607422 1.83984375 3.05607422 0.65625 3.11328125 C-5.82241629 3.52220697 -11.05882698 4.37217347 -17 7 C-17.33 5.68 -17.66 4.36 -18 3 C-5.75645756 -0.7195572 -5.75645756 -0.7195572 0 0 Z " fill="#0E0F0A" transform="translate(448,208)"/>
<path d="M0 0 C1.1171875 1.609375 1.1171875 1.609375 2 4 C1.3203125 7.015625 1.3203125 7.015625 0.125 10.25 C-0.45894531 11.86648437 -0.45894531 11.86648437 -1.0546875 13.515625 C-1.36664063 14.33546875 -1.67859375 15.1553125 -2 16 C-2.33 15.34 -2.66 14.68 -3 14 C-3.66 14 -4.32 14 -5 14 C-4.54636829 12.41531323 -4.08688548 10.83230076 -3.625 9.25 C-3.36976563 8.36828125 -3.11453125 7.4865625 -2.8515625 6.578125 C-2.0790066 4.23919428 -1.16374324 2.16557438 0 0 Z " fill="#0D0E0A" transform="translate(238,229)"/>
<path d="M0 0 C0.52078125 0.36867187 1.0415625 0.73734375 1.578125 1.1171875 C0.258125 1.1171875 -1.061875 1.1171875 -2.421875 1.1171875 C-2.421875 1.7771875 -2.421875 2.4371875 -2.421875 3.1171875 C-6.28420726 4.99317745 -8.29374346 5.09490286 -12.421875 4.1171875 C-13.411875 4.4471875 -14.401875 4.7771875 -15.421875 5.1171875 C-15.421875 4.4571875 -15.421875 3.7971875 -15.421875 3.1171875 C-13.34476754 2.39080021 -11.25987188 1.68665342 -9.171875 0.9921875 C-8.01171875 0.59773437 -6.8515625 0.20328125 -5.65625 -0.203125 C-2.421875 -0.8828125 -2.421875 -0.8828125 0 0 Z " fill="#12120F" transform="translate(436.421875,238.8828125)"/>
<path d="M0 0 C7.59 0 15.18 0 23 0 C23 0.33 23 0.66 23 1 C16.73 1 10.46 1 4 1 C4 2.98 4 4.96 4 7 C2.35 5.35 0.7 3.7 -1 2 C-0.67 1.34 -0.34 0.68 0 0 Z " fill="#1C1B19" transform="translate(123,172)"/>
<path d="M0 0 C-1.8478731 3.6957462 -7.46601064 4.42221663 -11.2734375 5.70117188 C-13.21312167 6.38566331 -15.11100667 7.185993 -17 8 C-17.33 8.99 -17.66 9.98 -18 11 C-18.66 9.68 -19.32 8.36 -20 7 C-4.98473282 0 -4.98473282 0 0 0 Z " fill="#181715" transform="translate(323,209)"/>
<path d="M0 0 C2.0625 2.3125 2.0625 2.3125 4 5 C3.67 5.99 3.34 6.98 3 8 C-2.94 8 -8.88 8 -15 8 C-15 7.67 -15 7.34 -15 7 C-7.08 6.505 -7.08 6.505 1 6 C0.67 4.02 0.34 2.04 0 0 Z " fill="#070806" transform="translate(484,300)"/>
<path d="M0 0 C2.97381921 3.49334185 4.58440784 7.4044218 6.25 11.625 C6.53101562 12.305625 6.81203125 12.98625 7.1015625 13.6875 C7.7987745 15.43398154 8.40658567 17.21557803 9 19 C8.67 19.66 8.34 20.32 8 21 C5.50723904 17.98880158 4.19018997 15.19213887 2.9375 11.5 C2.01798784 8.81162709 1.1543016 6.28925184 -0.18359375 3.78125 C-0.45300781 3.1934375 -0.72242187 2.605625 -1 2 C-0.67 1.34 -0.34 0.68 0 0 Z " fill="#181715" transform="translate(69,252)"/>
<path d="M0 0 C1.96115634 2.9417345 3.46229008 5.89097329 5 9.0625 C6.07403709 11.23163505 6.07403709 11.23163505 8 14 C4.5625 13.1875 4.5625 13.1875 1 12 C0.03929566 9.11788698 -0.10581883 7.30149956 -0.0625 4.3125 C-0.05347656 3.50425781 -0.04445313 2.69601562 -0.03515625 1.86328125 C-0.02355469 1.24839844 -0.01195312 0.63351562 0 0 Z " fill="#1C1C19" transform="translate(410,282)"/>
<path d="M0 0 C0 3.63 0 7.26 0 11 C-0.33 11 -0.66 11 -1 11 C-1.33 8.36 -1.66 5.72 -2 3 C-3.85625 3.5259375 -3.85625 3.5259375 -5.75 4.0625 C-8.903292 4.95593273 -10.86774164 5.00881294 -14 4 C-12.23141309 3.32739649 -10.46003984 2.66211605 -8.6875 2 C-7.70136719 1.62875 -6.71523438 1.2575 -5.69921875 0.875 C-3 0 -3 0 0 0 Z " fill="#131311" transform="translate(354,160)"/>
<path d="M0 0 C0.66 0.33 1.32 0.66 2 1 C2 2.65 2 4.3 2 6 C1.34 6 0.68 6 0 6 C-0.28875 6.969375 -0.5775 7.93875 -0.875 8.9375 C-2 12 -2 12 -4 13 C-4 11.02 -4 9.04 -4 7 C-3.34 6.67 -2.68 6.34 -2 6 C-1.27306096 4.02111039 -0.60183749 2.02045442 0 0 Z " fill="#21201F" transform="translate(125,196)"/>
<path d="M0 0 C0.433125 0.598125 0.86625 1.19625 1.3125 1.8125 C2.84377979 4.00305077 2.84377979 4.00305077 4.6875 5.25 C6.90798664 8.21064886 6.17739899 11.39288723 6 15 C3.75848118 12.75848118 3.03698675 10.9932888 1.875 8.0625 C1.52179687 7.18722656 1.16859375 6.31195313 0.8046875 5.41015625 C0 3 0 3 0 0 Z " fill="#1A1A19" transform="translate(46,252)"/>
<path d="M0 0 C1.32 0.33 2.64 0.66 4 1 C4.33 2.32 4.66 3.64 5 5 C3.02 5 1.04 5 -1 5 C-1.33 4.34 -1.66 3.68 -2 3 C-1.34 2.67 -0.68 2.34 0 2 C0 1.34 0 0.68 0 0 Z " fill="#141312" transform="translate(160,234)"/>
<path d="M0 0 C4.75 0.75 4.75 0.75 7 3 C6.67 3.99 6.34 4.98 6 6 C5.01 6 4.02 6 3 6 C3 5.01 3 4.02 3 3 C2.34 3 1.68 3 1 3 C0.67 2.01 0.34 1.02 0 0 Z " fill="#161411" transform="translate(442,233)"/>
<path d="M0 0 C0.33 0 0.66 0 1 0 C1.36923077 6.52307692 1.36923077 6.52307692 -0.5 8.9375 C-0.995 9.288125 -1.49 9.63875 -2 10 C-3.39195915 5.82412255 -1.82323219 3.86525224 0 0 Z " fill="#201E1E" transform="translate(116,219)"/>
<path d="M0 0 C0.33 0.99 0.66 1.98 1 3 C-0.9375 5.6875 -0.9375 5.6875 -3 8 C-3 7.34 -3 6.68 -3 6 C-3.66 5.67 -4.32 5.34 -5 5 C-3.35 3.35 -1.7 1.7 0 0 Z " fill="#0E0D0A" transform="translate(452,285)"/>
<path d="M0 0 C2.04119788 1.61594832 4.04072937 3.2856382 6 5 C6 5.66 6 6.32 6 7 C3.5625 6.3125 3.5625 6.3125 1 5 C0.1875 2.375 0.1875 2.375 0 0 Z " fill="#1C1B1A" transform="translate(281,213)"/>
<path d="M0 0 C0.66 0.33 1.32 0.66 2 1 C1.67 2.98 1.34 4.96 1 7 C-0.32 6.67 -1.64 6.34 -3 6 C-3 5.34 -3 4.68 -3 4 C-2.34 4 -1.68 4 -1 4 C-0.67 2.68 -0.34 1.36 0 0 Z " fill="#232221" transform="translate(91,279)"/>
<path d="M0 0 C0.33 0.66 0.66 1.32 1 2 C0.34 2 -0.32 2 -1 2 C-1.33 2.99 -1.66 3.98 -2 5 C-4.0625 5.6875 -4.0625 5.6875 -6 6 C-5.8125 4.125 -5.8125 4.125 -5 2 C-2.4375 0.75 -2.4375 0.75 0 0 Z " fill="#232220" transform="translate(141,216)"/>
<path d="M0 0 C2.0625 0.4375 2.0625 0.4375 4 1 C4 2.32 4 3.64 4 5 C2.68 5 1.36 5 0 5 C-0.5625 3.0625 -0.5625 3.0625 -1 1 C-0.67 0.67 -0.34 0.34 0 0 Z " fill="#2A2A2A" transform="translate(179,212)"/>
<path d="M0 0 C1.32 0 2.64 0 4 0 C4.33 2.64 4.66 5.28 5 8 C2.20127563 5.47211993 0.54226981 3.79588866 0 0 Z " fill="#1F1F1E" transform="translate(175,211)"/>
<path d="M0 0 C2.97 0 5.94 0 9 0 C6.23776722 2.76223278 3.79293383 2.57856291 0 3 C0 2.01 0 1.02 0 0 Z " fill="#212121" transform="translate(141,300)"/>
<path d="M0 0 C3 1 3 1 3 1 Z " fill="#000000" transform="translate(151,234)"/>
<path d="" fill="#000000" transform="translate(0,0)"/>
</svg>
